{
    "asset" : {
        "generator" : "Khronos glTF Blender I/O v1.5.17",
        "version" : "2.0"
    },
    "scene" : 0,
    "scenes" : [
        {
            "name" : "kkviz",
            "nodes" : [
                0
            ]
        }
    ],
    "nodes" : [
        {
            "mesh" : 0,
            "name" : "kkviz bambusa boniopsis_01",
            "scale" : [
                0.005234746728092432,
                0.005234746728092432,
                0.005234746728092432
            ]
        }
    ],
    "materials" : [
        {
            "alphaMode" : "BLEND",
            "doubleSided" : true,
            "name" : "kkviz bambusa boniopsis_01 trunk1",
            "pbrMetallicRoughness" : {
                "metallicFactor" : 0
            }
        },
        {
            "doubleSided" : true,
            "name" : "kkviz bambusa boniopsis_01 trunk2",
            "pbrMetallicRoughness" : {
                "metallicFactor" : 0
            }
        },
        {
            "alphaMode" : "BLEND",
            "doubleSided" : true,
            "name" : "kkviz bambusa boniopsis_01 leaves_F",
            "pbrMetallicRoughness" : {
                "baseColorFactor" : [
                    0.1677747219800949,
                    0.29569220542907715,
                    0.05238078162074089,
                    1
                ],
                "metallicFactor" : 0,
                "roughnessFactor" : 0.5
            }
        }
    ],
    "meshes" : [
        {
            "name" : "Mesh",
            "primitives" : [
                {
                    "attributes" : {
                        "POSITION" : 0,
                        "NORMAL" : 1,
                        "TEXCOORD_0" : 2
                    },
                    "indices" : 3,
                    "material" : 0
                },
                {
                    "attributes" : {
                        "POSITION" : 4,
                        "NORMAL" : 5,
                        "TEXCOORD_0" : 6
                    },
                    "indices" : 7,
                    "material" : 1
                },
                {
                    "attributes" : {
                        "POSITION" : 8,
                        "NORMAL" : 9,
                        "TEXCOORD_0" : 10
                    },
                    "indices" : 11,
                    "material" : 2
                }
            ]
        }
    ],
    "accessors" : [
        {
            "bufferView" : 0,
            "componentType" : 5126,
            "count" : 9233,
            "max" : [
                38.63475799560547,
                201.91049194335938,
                46.71356964111328
            ],
            "min" : [
                -42.6301155090332,
                0.340712308883667,
                -37.74293518066406
            ],
            "type" : "VEC3"
        },
        {
            "bufferView" : 1,
            "componentType" : 5126,
            "count" : 9233,
            "type" : "VEC3"
        },
        {
            "bufferView" : 2,
            "componentType" : 5126,
            "count" : 9233,
            "type" : "VEC2"
        },
        {
            "bufferView" : 3,
            "componentType" : 5123,
            "count" : 32976,
            "type" : "SCALAR"
        },
        {
            "bufferView" : 4,
            "componentType" : 5126,
            "count" : 6838,
            "max" : [
                33.830726623535156,
                193.91136169433594,
                44.74448776245117
            ],
            "min" : [
                -40.063316345214844,
                19.238815307617188,
                -34.70318603515625
            ],
            "type" : "VEC3"
        },
        {
            "bufferView" : 5,
            "componentType" : 5126,
            "count" : 6838,
            "type" : "VEC3"
        },
        {
            "bufferView" : 6,
            "componentType" : 5126,
            "count" : 6838,
            "type" : "VEC2"
        },
        {
            "bufferView" : 7,
            "componentType" : 5123,
            "count" : 31542,
            "type" : "SCALAR"
        },
        {
            "bufferView" : 8,
            "componentType" : 5126,
            "count" : 37208,
            "max" : [
                44.39833068847656,
                206.53875732421875,
                55.41154098510742
            ],
            "min" : [
                -48.57118606567383,
                16.066930770874023,
                -43.58396530151367
            ],
            "type" : "VEC3"
        },
        {
            "bufferView" : 9,
            "componentType" : 5126,
            "count" : 37208,
            "type" : "VEC3"
        },
        {
            "bufferView" : 10,
            "componentType" : 5126,
            "count" : 37208,
            "type" : "VEC2"
        },
        {
            "bufferView" : 11,
            "componentType" : 5123,
            "count" : 124632,
            "type" : "SCALAR"
        }
    ],
    "bufferViews" : [
        {
            "buffer" : 0,
            "byteLength" : 110796,
            "byteOffset" : 0
        },
        {
            "buffer" : 0,
            "byteLength" : 110796,
            "byteOffset" : 110796
        },
        {
            "buffer" : 0,
            "byteLength" : 73864,
            "byteOffset" : 221592
        },
        {
            "buffer" : 0,
            "byteLength" : 65952,
            "byteOffset" : 295456
        },
        {
            "buffer" : 0,
            "byteLength" : 82056,
            "byteOffset" : 361408
        },
        {
            "buffer" : 0,
            "byteLength" : 82056,
            "byteOffset" : 443464
        },
        {
            "buffer" : 0,
            "byteLength" : 54704,
            "byteOffset" : 525520
        },
        {
            "buffer" : 0,
            "byteLength" : 63084,
            "byteOffset" : 580224
        },
        {
            "buffer" : 0,
            "byteLength" : 446496,
            "byteOffset" : 643308
        },
        {
            "buffer" : 0,
            "byteLength" : 446496,
            "byteOffset" : 1089804
        },
        {
            "buffer" : 0,
            "byteLength" : 297664,
            "byteOffset" : 1536300
        },
        {
            "buffer" : 0,
            "byteLength" : 249264,
            "byteOffset" : 1833964
        }
    ],
    "buffers" : [
        {
            "byteLength" : 2083228,
            "uri" : "data:application/octet-stream;base64,"
        }
    ]
}
