{
    "asset" : {
        "generator" : "Khronos glTF Blender I/O v1.5.17",
        "version" : "2.0"
    },
    "scene" : 0,
    "scenes" : [
        {
            "name" : "Scene",
            "nodes" : [
                0
            ]
        }
    ],
    "nodes" : [
        {
            "extras" : {
                "MaxHandle" : 9
            },
            "mesh" : 0,
            "name" : "kkviz miscanthus sinensis zebrinus_01",
            "scale" : [
                0.009999999776482582,
                0.009999999776482582,
                0.009999999776482582
            ],
            "translation" : [
                0,
                0.0007626924780197442,
                0
            ]
        }
    ],
    "materials" : [
        {
            "doubleSided" : true,
            "name" : "Material",
            "pbrMetallicRoughness" : {
                "baseColorFactor" : [
                    0.016317473724484444,
                    0.0496942475438118,
                    0.003921602386981249,
                    1
                ],
                "metallicFactor" : 0,
                "roughnessFactor" : 0.4000000059604645
            }
        }
    ],
    "meshes" : [
        {
            "name" : "Mesh",
            "primitives" : [
                {
                    "attributes" : {
                        "POSITION" : 0,
                        "NORMAL" : 1,
                        "TEXCOORD_0" : 2
                    },
                    "indices" : 3,
                    "material" : 0
                }
            ]
        }
    ],
    "accessors" : [
        {
            "bufferView" : 0,
            "componentType" : 5126,
            "count" : 12857,
            "max" : [
                28.989521026611328,
                50.8134765625,
                29.79548454284668
            ],
            "min" : [
                -28.889163970947266,
                0.016985587775707245,
                -28.31498146057129
            ],
            "type" : "VEC3"
        },
        {
            "bufferView" : 1,
            "componentType" : 5126,
            "count" : 12857,
            "type" : "VEC3"
        },
        {
            "bufferView" : 2,
            "componentType" : 5126,
            "count" : 12857,
            "type" : "VEC2"
        },
        {
            "bufferView" : 3,
            "componentType" : 5123,
            "count" : 48438,
            "type" : "SCALAR"
        }
    ],
    "bufferViews" : [
        {
            "buffer" : 0,
            "byteLength" : 154284,
            "byteOffset" : 0
        },
        {
            "buffer" : 0,
            "byteLength" : 154284,
            "byteOffset" : 154284
        },
        {
            "buffer" : 0,
            "byteLength" : 102856,
            "byteOffset" : 308568
        },
        {
            "buffer" : 0,
            "byteLength" : 96876,
            "byteOffset" : 411424
        }
    ],
    "buffers" : [
        {
            "byteLength" : 508300,
            "uri" : "data:application/octet-stream;base64,"
        }
    ]
}
