{
    "asset" : {
        "generator" : "Khronos glTF Blender I/O v1.5.17",
        "version" : "2.0"
    },
    "scene" : 0,
    "scenes" : [
        {
            "name" : "Scene",
            "nodes" : [
                0
            ]
        }
    ],
    "nodes" : [
        {
            "mesh" : 0,
            "name" : "house_type01"
        }
    ],
    "materials" : [
        {
            "name" : "border.001",
            "pbrMetallicRoughness" : {
                "baseColorFactor" : [
                    0.5607843399047852,
                    0.5686274766921997,
                    0.6000000238418579,
                    1
                ]
            }
        },
        {
            "name" : "window.001",
            "pbrMetallicRoughness" : {
                "baseColorFactor" : [
                    0.7372549176216125,
                    0.886274516582489,
                    1,
                    1
                ]
            }
        },
        {
            "name" : "door.001",
            "pbrMetallicRoughness" : {
                "baseColorFactor" : [
                    0.38823530077934265,
                    0.4000000059604645,
                    0.4470588266849518,
                    1
                ]
            }
        },
        {
            "name" : "_defaultMat.001",
            "pbrMetallicRoughness" : {
                "baseColorFactor" : [
                    0.9528301954269409,
                    0.37477976083755493,
                    0.2921413481235504,
                    1
                ]
            }
        },
        {
            "name" : "roof.003",
            "pbrMetallicRoughness" : {
                "baseColorFactor" : [
                    0.33725491166114807,
                    0.7372549176216125,
                    0.6000000238418579,
                    1
                ]
            }
        }
    ],
    "meshes" : [
        {
            "name" : "Mesh house_type01",
            "primitives" : [
                {
                    "attributes" : {
                        "POSITION" : 0,
                        "NORMAL" : 1,
                        "TEXCOORD_0" : 2
                    },
                    "indices" : 3,
                    "material" : 0
                },
                {
                    "attributes" : {
                        "POSITION" : 4,
                        "NORMAL" : 5,
                        "TEXCOORD_0" : 6
                    },
                    "indices" : 7,
                    "material" : 1
                },
                {
                    "attributes" : {
                        "POSITION" : 8,
                        "NORMAL" : 9,
                        "TEXCOORD_0" : 10
                    },
                    "indices" : 11,
                    "material" : 2
                },
                {
                    "attributes" : {
                        "POSITION" : 12,
                        "NORMAL" : 13,
                        "TEXCOORD_0" : 14
                    },
                    "indices" : 15,
                    "material" : 3
                },
                {
                    "attributes" : {
                        "POSITION" : 16,
                        "NORMAL" : 17,
                        "TEXCOORD_0" : 18
                    },
                    "indices" : 19,
                    "material" : 4
                }
            ]
        }
    ],
    "accessors" : [
        {
            "bufferView" : 0,
            "componentType" : 5126,
            "count" : 549,
            "max" : [
                0.8999999761581421,
                1.0344722270965576,
                0.6119329929351807
            ],
            "min" : [
                -0.8999999761581421,
                0.00037354230880737305,
                -0.6033087968826294
            ],
            "type" : "VEC3"
        },
        {
            "bufferView" : 1,
            "componentType" : 5126,
            "count" : 549,
            "type" : "VEC3"
        },
        {
            "bufferView" : 2,
            "componentType" : 5126,
            "count" : 549,
            "type" : "VEC2"
        },
        {
            "bufferView" : 3,
            "componentType" : 5123,
            "count" : 684,
            "type" : "SCALAR"
        },
        {
            "bufferView" : 4,
            "componentType" : 5126,
            "count" : 26,
            "max" : [
                0.6750000715255737,
                0.3751097023487091,
                0.5669695138931274
            ],
            "min" : [
                -0.6749999523162842,
                0.10537350177764893,
                -0.5733089447021484
            ],
            "type" : "VEC3"
        },
        {
            "bufferView" : 5,
            "componentType" : 5126,
            "count" : 26,
            "type" : "VEC3"
        },
        {
            "bufferView" : 6,
            "componentType" : 5126,
            "count" : 26,
            "type" : "VEC2"
        },
        {
            "bufferView" : 7,
            "componentType" : 5123,
            "count" : 30,
            "type" : "SCALAR"
        },
        {
            "bufferView" : 8,
            "componentType" : 5126,
            "count" : 62,
            "max" : [
                0.7874999642372131,
                1.0121591091156006,
                0.5669693946838379
            ],
            "min" : [
                -0.7874999642372131,
                0.00037354230880737305,
                -0.5733089447021484
            ],
            "type" : "VEC3"
        },
        {
            "bufferView" : 9,
            "componentType" : 5126,
            "count" : 62,
            "type" : "VEC3"
        },
        {
            "bufferView" : 10,
            "componentType" : 5126,
            "count" : 62,
            "type" : "VEC2"
        },
        {
            "bufferView" : 11,
            "componentType" : 5123,
            "count" : 66,
            "type" : "SCALAR"
        },
        {
            "bufferView" : 12,
            "componentType" : 5126,
            "count" : 102,
            "max" : [
                0.8999999761581421,
                1.0505566596984863,
                0.5969842672348022
            ],
            "min" : [
                -0.8999999761581421,
                0.07537353038787842,
                -0.6033087968826294
            ],
            "type" : "VEC3"
        },
        {
            "bufferView" : 13,
            "componentType" : 5126,
            "count" : 102,
            "type" : "VEC3"
        },
        {
            "bufferView" : 14,
            "componentType" : 5126,
            "count" : 102,
            "type" : "VEC2"
        },
        {
            "bufferView" : 15,
            "componentType" : 5123,
            "count" : 102,
            "type" : "SCALAR"
        },
        {
            "bufferView" : 16,
            "componentType" : 5126,
            "count" : 134,
            "max" : [
                0.9749999642372131,
                1.1069366931915283,
                0.6833597421646118
            ],
            "min" : [
                -0.9749999642372131,
                0.55537348985672,
                -0.6903089284896851
            ],
            "type" : "VEC3"
        },
        {
            "bufferView" : 17,
            "componentType" : 5126,
            "count" : 134,
            "type" : "VEC3"
        },
        {
            "bufferView" : 18,
            "componentType" : 5126,
            "count" : 134,
            "type" : "VEC2"
        },
        {
            "bufferView" : 19,
            "componentType" : 5123,
            "count" : 138,
            "type" : "SCALAR"
        }
    ],
    "bufferViews" : [
        {
            "buffer" : 0,
            "byteLength" : 6588,
            "byteOffset" : 0
        },
        {
            "buffer" : 0,
            "byteLength" : 6588,
            "byteOffset" : 6588
        },
        {
            "buffer" : 0,
            "byteLength" : 4392,
            "byteOffset" : 13176
        },
        {
            "buffer" : 0,
            "byteLength" : 1368,
            "byteOffset" : 17568
        },
        {
            "buffer" : 0,
            "byteLength" : 312,
            "byteOffset" : 18936
        },
        {
            "buffer" : 0,
            "byteLength" : 312,
            "byteOffset" : 19248
        },
        {
            "buffer" : 0,
            "byteLength" : 208,
            "byteOffset" : 19560
        },
        {
            "buffer" : 0,
            "byteLength" : 60,
            "byteOffset" : 19768
        },
        {
            "buffer" : 0,
            "byteLength" : 744,
            "byteOffset" : 19828
        },
        {
            "buffer" : 0,
            "byteLength" : 744,
            "byteOffset" : 20572
        },
        {
            "buffer" : 0,
            "byteLength" : 496,
            "byteOffset" : 21316
        },
        {
            "buffer" : 0,
            "byteLength" : 132,
            "byteOffset" : 21812
        },
        {
            "buffer" : 0,
            "byteLength" : 1224,
            "byteOffset" : 21944
        },
        {
            "buffer" : 0,
            "byteLength" : 1224,
            "byteOffset" : 23168
        },
        {
            "buffer" : 0,
            "byteLength" : 816,
            "byteOffset" : 24392
        },
        {
            "buffer" : 0,
            "byteLength" : 204,
            "byteOffset" : 25208
        },
        {
            "buffer" : 0,
            "byteLength" : 1608,
            "byteOffset" : 25412
        },
        {
            "buffer" : 0,
            "byteLength" : 1608,
            "byteOffset" : 27020
        },
        {
            "buffer" : 0,
            "byteLength" : 1072,
            "byteOffset" : 28628
        },
        {
            "buffer" : 0,
            "byteLength" : 276,
            "byteOffset" : 29700
        }
    ],
    "buffers" : [
        {
            "byteLength" : 29976,
            "uri" : "data:application/octet-stream;base64,"
        }
    ]
}
