{
    "asset" : {
        "generator" : "Khronos glTF Blender I/O v1.5.17",
        "version" : "2.0"
    },
    "extensionsUsed" : [
        "KHR_materials_clearcoat"
    ],
    "scene" : 0,
    "scenes" : [
        {
            "name" : "kkviz",
            "nodes" : [
                0
            ]
        }
    ],
    "nodes" : [
        {
            "mesh" : 0,
            "name" : "Cube.002",
            "rotation" : [
                -0.0535195991396904,
                -0.011487643234431744,
                0.00752167496830225,
                0.9984723925590515
            ],
            "scale" : [
                0.509124219417572,
                0.007306778337806463,
                0.008025904186069965
            ],
            "translation" : [
                0.008133143186569214,
                0.00043485313653945923,
                -0.6634641885757446
            ]
        }
    ],
    "materials" : [
        {
            "doubleSided" : true,
            "name" : "Black Metal Mat",
            "pbrMetallicRoughness" : {
                "baseColorFactor" : [
                    0,
                    0,
                    0,
                    1
                ],
                "metallicFactor" : 0.3404255509376526,
                "roughnessFactor" : 0.43617022037506104
            }
        },
        {
            "doubleSided" : true,
            "name" : "White Lines.001",
            "pbrMetallicRoughness" : {
                "baseColorFactor" : [
                    0.07637088745832443,
                    0.22746619582176208,
                    0.5925773978233337,
                    1
                ]
            }
        },
        {
            "doubleSided" : true,
            "extensions" : {
                "KHR_materials_clearcoat" : {
                    "clearcoatFactor" : 0.41134750843048096,
                    "clearcoatRoughnessFactor" : 1
                }
            },
            "name" : "Metal",
            "pbrMetallicRoughness" : {
                "baseColorFactor" : [
                    0.17335589230060577,
                    0.17335589230060577,
                    0.17335589230060577,
                    1
                ],
                "roughnessFactor" : 0.4645389914512634
            }
        },
        {
            "name" : "Glass",
            "pbrMetallicRoughness" : {
                "baseColorFactor" : [
                    0.013007421977818012,
                    0.01050503645092249,
                    0.2265835851430893,
                    1
                ],
                "metallicFactor" : 0,
                "roughnessFactor" : 0.5
            }
        }
    ],
    "meshes" : [
        {
            "name" : "Cube.003",
            "primitives" : [
                {
                    "attributes" : {
                        "POSITION" : 0,
                        "NORMAL" : 1,
                        "TEXCOORD_0" : 2
                    },
                    "indices" : 3,
                    "material" : 0
                },
                {
                    "attributes" : {
                        "POSITION" : 4,
                        "NORMAL" : 5,
                        "TEXCOORD_0" : 6
                    },
                    "indices" : 7,
                    "material" : 1
                },
                {
                    "attributes" : {
                        "POSITION" : 8,
                        "NORMAL" : 9,
                        "TEXCOORD_0" : 10
                    },
                    "indices" : 11,
                    "material" : 2
                },
                {
                    "attributes" : {
                        "POSITION" : 12,
                        "NORMAL" : 13,
                        "TEXCOORD_0" : 14
                    },
                    "indices" : 15,
                    "material" : 3
                }
            ]
        }
    ],
    "accessors" : [
        {
            "bufferView" : 0,
            "componentType" : 5126,
            "count" : 7275,
            "max" : [
                1.0000001192092896,
                4.0622100830078125,
                207.0633087158203
            ],
            "min" : [
                -1.0000001192092896,
                -1,
                -41.87269592285156
            ],
            "type" : "VEC3"
        },
        {
            "bufferView" : 1,
            "componentType" : 5126,
            "count" : 7275,
            "type" : "VEC3"
        },
        {
            "bufferView" : 2,
            "componentType" : 5126,
            "count" : 7275,
            "type" : "VEC2"
        },
        {
            "bufferView" : 3,
            "componentType" : 5123,
            "count" : 17331,
            "type" : "SCALAR"
        },
        {
            "bufferView" : 4,
            "componentType" : 5126,
            "count" : 4795,
            "max" : [
                0.9791020750999451,
                4.0622100830078125,
                207.0633087158203
            ],
            "min" : [
                -0.9791020750999451,
                3.8317413330078125,
                -41.87269592285156
            ],
            "type" : "VEC3"
        },
        {
            "bufferView" : 5,
            "componentType" : 5126,
            "count" : 4795,
            "type" : "VEC3"
        },
        {
            "bufferView" : 6,
            "componentType" : 5126,
            "count" : 4795,
            "type" : "VEC2"
        },
        {
            "bufferView" : 7,
            "componentType" : 5123,
            "count" : 7773,
            "type" : "SCALAR"
        },
        {
            "bufferView" : 8,
            "componentType" : 5126,
            "count" : 1010,
            "max" : [
                0.9743481874465942,
                3.72076416015625,
                206.83668518066406
            ],
            "min" : [
                -0.972574770450592,
                1.33062744140625,
                -41.37431335449219
            ],
            "type" : "VEC3"
        },
        {
            "bufferView" : 9,
            "componentType" : 5126,
            "count" : 1010,
            "type" : "VEC3"
        },
        {
            "bufferView" : 10,
            "componentType" : 5126,
            "count" : 1010,
            "type" : "VEC2"
        },
        {
            "bufferView" : 11,
            "componentType" : 5123,
            "count" : 2400,
            "type" : "SCALAR"
        },
        {
            "bufferView" : 12,
            "componentType" : 5126,
            "count" : 856,
            "max" : [
                0.9726625084877014,
                3.8317413330078125,
                206.56643676757812
            ],
            "min" : [
                -0.9726625084877014,
                3.8317413330078125,
                -41.375816345214844
            ],
            "type" : "VEC3"
        },
        {
            "bufferView" : 13,
            "componentType" : 5126,
            "count" : 856,
            "type" : "VEC3"
        },
        {
            "bufferView" : 14,
            "componentType" : 5126,
            "count" : 856,
            "type" : "VEC2"
        },
        {
            "bufferView" : 15,
            "componentType" : 5123,
            "count" : 1296,
            "type" : "SCALAR"
        }
    ],
    "bufferViews" : [
        {
            "buffer" : 0,
            "byteLength" : 87300,
            "byteOffset" : 0
        },
        {
            "buffer" : 0,
            "byteLength" : 87300,
            "byteOffset" : 87300
        },
        {
            "buffer" : 0,
            "byteLength" : 58200,
            "byteOffset" : 174600
        },
        {
            "buffer" : 0,
            "byteLength" : 34662,
            "byteOffset" : 232800
        },
        {
            "buffer" : 0,
            "byteLength" : 57540,
            "byteOffset" : 267464
        },
        {
            "buffer" : 0,
            "byteLength" : 57540,
            "byteOffset" : 325004
        },
        {
            "buffer" : 0,
            "byteLength" : 38360,
            "byteOffset" : 382544
        },
        {
            "buffer" : 0,
            "byteLength" : 15546,
            "byteOffset" : 420904
        },
        {
            "buffer" : 0,
            "byteLength" : 12120,
            "byteOffset" : 436452
        },
        {
            "buffer" : 0,
            "byteLength" : 12120,
            "byteOffset" : 448572
        },
        {
            "buffer" : 0,
            "byteLength" : 8080,
            "byteOffset" : 460692
        },
        {
            "buffer" : 0,
            "byteLength" : 4800,
            "byteOffset" : 468772
        },
        {
            "buffer" : 0,
            "byteLength" : 10272,
            "byteOffset" : 473572
        },
        {
            "buffer" : 0,
            "byteLength" : 10272,
            "byteOffset" : 483844
        },
        {
            "buffer" : 0,
            "byteLength" : 6848,
            "byteOffset" : 494116
        },
        {
            "buffer" : 0,
            "byteLength" : 2592,
            "byteOffset" : 500964
        }
    ],
    "buffers" : [
        {
            "byteLength" : 503556,
            "uri" : "data:application/octet-stream;base64,"
        }
    ]
}
